<?xml version="1.0" standalone="no"?>
<!DOCTYPE svg PUBLIC "-//W3C//DTD SVG 20010904//EN"
 "http://www.w3.org/TR/2001/REC-SVG-20010904/DTD/svg10.dtd">
<svg version="1.0" xmlns="http://www.w3.org/2000/svg"
 width="48.000000pt" height="48.000000pt" viewBox="0 0 48.000000 48.000000"
 preserveAspectRatio="xMidYMid meet">

<g transform="translate(0.000000,48.000000) scale(0.100000,-0.100000)"
fill="#000000" stroke="none">
<path d="M123 441 c-18 -29 -16 -55 5 -81 40 -50 98 4 76 69 -12 34 -63 42
-81 12z"/>
<path d="M282 448 c-17 -17 -15 -74 4 -93 23 -22 55 -15 73 16 21 38 0 89 -38
89 -15 0 -32 -5 -39 -12z"/>
<path d="M34 352 c-49 -33 -31 -122 25 -122 41 0 56 88 19 114 -25 18 -29 19
-44 8z"/>
<path d="M402 344 c-37 -26 -22 -114 19 -114 41 0 68 54 48 93 -21 39 -35 44
-67 21z"/>
<path d="M153 263 c-93 -99 -106 -129 -78 -182 20 -39 79 -61 165 -61 86 0
145 22 165 61 28 53 15 83 -77 182 -75 79 -100 79 -175 0z m115 -45 c3 -36 5
-38 38 -38 30 0 34 -3 34 -25 0 -22 -4 -25 -35 -25 -33 0 -35 -2 -35 -35 0
-32 -2 -35 -30 -35 -28 0 -30 3 -30 35 0 33 -2 35 -35 35 -31 0 -35 3 -35 25
0 22 4 25 35 25 33 0 35 2 35 33 0 40 7 49 35 45 15 -2 21 -12 23 -40z"/>
</g>
</svg>
